#tb 0: 1001/30000
#media_type 0: video
#codec_id 0: rawvideo
#dimensions 0: 128x128
#sar 0: 4/3
0,          1,          1,        1,    24576, 0x6a670039
0,          2,          2,        1,    24576, 0x08705872
0,          3,          3,        1,    24576, 0xaeec527b
0,          4,          4,        1,    24576, 0xef5b0dc1
0,          5,          5,        1,    24576, 0x0bbca3cc
